<svg viewBox="0 0 50 50" xmlns="http://www.w3.org/2000/svg">    

    <defs>
        <linearGradient id="myGradient" x1="100%" y1="100%" x2="0%" y2="0%">
            <stop offset="0%" style="stop-color:#FFBC5E;stop-opacity:1" />
            <stop offset="100%" style="stop-color:#FFDB6E;stop-opacity:1" />
        </linearGradient>
    </defs>
<path d="m16.71875 5c-3.203125.113281-7.867187 1.046875-14.125 3.8125-.367187.113281-.636719.433594-.691406.8125-.054688.382813.117187.761719.4375.976563.320312.210937.734375.222656 1.066406.023437 6.070313-2.683594 10.484375-3.523437 13.375-3.625 1.445313-.050781 2.496094.082031 3.1875.25.347656.085938.605469.179688.75.25.019531.007813.015625.019531.03125.03125.019531.039063.046875.070313.0625.125.050781.183594.09375.445313.15625.75.125.609375.261719 1.398438.375 2.15625.191406 1.289063.300781 2.164063.34375 2.5-.609375.019531-1.203125.070313-1.8125.09375-.539062.023438-1.082031.035156-1.59375.0625-.125.003906-.253906.027344-.375.03125-.058594.003906-.097656-.003906-.15625 0-.578125.027344-1.125.054688-1.625.09375-.308594.023438-.546875.0625-.8125.09375-.207031.023438-.449219.035156-.625.0625-.167969.023438-.300781.070313-.4375.09375-.191406.035156-.378906.058594-.625.1875-.28125.148438-.535156.335938-.78125.53125-.253906.199219-.492187.414063-.71875.65625-.234375.25-.449219.527344-.65625.8125-.199219.273438-.410156.546875-.59375.84375-.0625.101563-.125.210938-.1875.3125-.109375.183594-.207031.375-.3125.5625-.035156.058594-.058594.125-.09375.1875-.175781.320313-.367187.644531-.53125.96875-.003906.007813.003906.023438 0 .03125-.1875.375-.359375.730469-.53125 1.09375-.035156.070313-.058594.148438-.09375.21875-.382812-.679687-1.007812-1-1.25-1-.519531 0-2.3125.558594-2.46875.6875s-.40625 1.316406-.40625 1.65625.695313.625 1.09375.625c.253906 0 1.175781.023438 2.03125.03125-.0625.085938-.089844.167969-.21875.3125-.207031.222656-.457031.46875-.71875.71875-.023437.023438-.039062.039063-.0625.0625-.304687.292969-.636719.609375-.96875.96875-.011719.011719-.019531.019531-.03125.03125-.34375.375-.667969.769531-.96875 1.21875-.109375.164063-.246094.414063-.375.71875-.015625.039063-.046875.054688-.0625.09375-.046875.117188-.078125.238281-.125.375-.019531.054688-.042969.097656-.0625.15625-.046875.144531-.082031.273438-.125.4375-.050781.191406-.082031.40625-.125.625-.019531.097656-.042969.207031-.0625.3125v.03125c-.035156.214844-.066406.441406-.09375.6875-.027344.257813-.042969.523438-.0625.8125-.003906.078125-.027344.140625-.03125.21875v.09375c-.015625.351563-.03125.726563-.03125 1.125v12c0 1.101563.898438 2 2 2h4c1.101563 0 2-.898437 2-2v-1.5c.332031.027344.734375.066406 1.09375.09375.351563.027344.683594.035156 1.0625.0625.152344.011719.28125.019531.4375.03125.449219.03125.890625.035156 1.375.0625.84375.046875 1.738281.089844 2.6875.125.953125.035156 1.941406.074219 3 .09375 1.070313.019531 2.164063.03125 3.34375.03125 1.183594 0 2.273438-.011719 3.34375-.03125 1.058594-.019531 2.046875-.058594 3-.09375.949219-.035156 1.84375-.078125 2.6875-.125.636719-.035156 1.234375-.054687 1.8125-.09375.371094-.027344.714844-.035156 1.0625-.0625.359375-.027344.761719-.066406 1.09375-.09375v1.5c0 1.101563.898438 2 2 2h4c1.101563 0 2-.898437 2-2v-12c0-.429687-.011719-.839844-.03125-1.21875-.015625-.316406-.035156-.597656-.0625-.875-.003906-.058594-.023437-.101562-.03125-.15625-.027344-.242187-.058594-.472656-.09375-.6875-.011719-.078125-.019531-.144531-.03125-.21875-.007812-.035156-.023437-.058594-.03125-.09375-.042969-.21875-.074219-.433594-.125-.625-.042969-.167969-.078125-.324219-.125-.46875-.019531-.058594-.042969-.101562-.0625-.15625-.046875-.136719-.078125-.257812-.125-.375-.019531-.050781-.042969-.078125-.0625-.125-.125-.292969-.269531-.527344-.375-.6875-.300781-.449219-.625-.84375-.96875-1.21875-.011719-.011719-.019531-.019531-.03125-.03125-.332031-.359375-.664062-.675781-.96875-.96875-.023437-.023437-.039062-.039062-.0625-.0625-.261719-.25-.511719-.496094-.71875-.71875-.128906-.144531-.15625-.226562-.21875-.3125.855469-.007812 1.777344-.03125 2.03125-.03125.398438 0 1.09375-.285156 1.09375-.625s-.25-1.527344-.40625-1.65625-1.949219-.6875-2.46875-.6875c-.242187 0-.867187.320313-1.25 1-.035156-.070312-.058594-.148437-.09375-.21875-.171875-.363281-.34375-.71875-.53125-1.09375-.003906-.007812.003906-.023437 0-.03125-.164062-.324219-.355469-.648437-.53125-.96875-.035156-.0625-.058594-.128906-.09375-.1875-.152344-.273437-.304687-.546875-.46875-.8125-.011719-.019531-.019531-.042969-.03125-.0625-.183594-.296875-.394531-.570312-.59375-.84375-.207031-.285156-.421875-.5625-.65625-.8125-.226562-.242187-.464844-.457031-.71875-.65625-.246094-.195312-.5-.382812-.78125-.53125-.246094-.128906-.433594-.152344-.625-.1875-.136719-.023437-.269531-.070312-.4375-.09375-.175781-.027344-.417969-.039062-.625-.0625-.265625-.03125-.503906-.070312-.8125-.09375-.5-.039062-1.046875-.066406-1.625-.09375-.058594-.003906-.097656.003906-.15625 0-.636719-.027344-1.3125-.066406-1.96875-.09375-.605469-.023437-1.207031-.074219-1.8125-.09375.042969-.335937.152344-1.210937.34375-2.5.113281-.757812.25-1.546875.375-2.15625.0625-.304687.105469-.566406.15625-.75.015625-.054687.042969-.085937.0625-.125.015625-.011719.011719-.023437.03125-.03125.144531-.070312.402344-.164062.75-.25.691406-.167969 1.742188-.300781 3.1875-.25 2.890625.101563 7.304688.941406 13.375 3.625.332031.199219.746094.1875 1.066406-.023437.320313-.214844.492188-.59375.4375-.976563-.054687-.378906-.324218-.699219-.691406-.8125-6.257812-2.765625-10.921875-3.699219-14.125-3.8125-1.601562-.054687-2.839844.089844-3.75.3125-.453125.109375-.816406.257813-1.125.40625-.308594.148438-.546875.226563-.8125.625-.207031.308594-.238281.519531-.3125.78125s-.152344.539063-.21875.875c-.136719.667969-.257812 1.472656-.375 2.25-.214844 1.425781-.347656 2.566406-.375 2.78125-.234375-.003906-1.054687-.03125-1.09375-.03125-.074219 0-.175781 0-.25 0-.378906.007813-.859375.023438-1.28125.03125-.027344-.214844-.160156-1.355469-.375-2.78125-.117187-.777344-.238281-1.582031-.375-2.25-.066406-.335937-.144531-.613281-.21875-.875s-.105469-.472656-.3125-.78125c-.265625-.398437-.503906-.476562-.8125-.625-.308594-.148437-.671875-.296875-1.125-.40625-.910156-.222656-2.148437-.367187-3.75-.3125zm8.25 10c.15625.003906.3125-.003906.46875 0 .386719.007813 2.246094.0625 4.59375.15625 1.171875.046875 2.347656.085938 3.34375.15625.125.007813.289063.023438.40625.03125.488281.042969.90625.109375 1.21875.15625.21875.03125.414063.085938.46875.09375.019531.011719.042969.019531.0625.03125.351563.207031.738281.566406 1.125 1.03125.027344.035156.066406.058594.09375.09375.140625.175781.265625.363281.40625.5625.269531.398438.53125.859375.78125 1.3125s.492188.910156.71875 1.375h-27.3125c.226563-.464844.472656-.921875.71875-1.375.21875-.398437.421875-.796875.65625-1.15625.007813-.011719.023438-.019531.03125-.03125.023438-.039062.039063-.089844.0625-.125.378906-.542969.785156-.980469 1.15625-1.3125.183594-.164062.359375-.308594.53125-.40625-.003906 0 .027344.003906.03125 0 .054688-.007812.25-.0625.46875-.09375.320313-.046875.746094-.113281 1.25-.15625.054688-.003906.132813.003906.1875 0 1.023438-.078125 2.292969-.136719 3.53125-.1875.800781-.03125.863281-.039062 1.5625-.0625 1.136719-.035156 2.300781-.074219 3.4375-.09375zm-17.625 10.75c.042969-.003906.078125-.007812.125 0 5.203125.839844 5.238281 1.042969 6.53125 2.125 0 0-.554687.304688-1.53125.875-.558594.328125-1.289062.25-1.8125.21875-.523437-.03125-1.578125-.113281-2.96875-.25-1.371094-.132812-1.21875-.707031-1.125-1.34375.019531-.140625.066406-.414062.125-.6875.042969-.089844.09375-.203125.125-.25.15625-.234375.339844-.460937.53125-.6875zm35.1875 0c.046875-.007812.082031-.003906.125 0 .191406.226563.375.453125.53125.6875.03125.046875.082031.160156.125.25.058594.273438.105469.546875.125.6875.09375.636719.246094 1.210938-1.125 1.34375-1.390625.136719-2.445312.21875-2.96875.25-.523437.03125-1.253906.109375-1.8125-.21875-.976562-.570312-1.53125-.875-1.53125-.875 1.292969-1.082031 1.328125-1.285156 6.53125-2.125zm-18.84375 2.125c.804688-.015625 1.3125 0 1.3125 0s8.28125-.035156 10 1.125c0 0-7.195312.226563-8.15625.625-.960937.398438-1.84375 1.375-1.84375 1.375s-.882812-.976562-1.84375-1.375c-.960937-.398437-8.15625-.625-8.15625-.625 1.289063-.871094 6.277344-1.078125 8.6875-1.125zm-5.28125 7.125h13.1875c1.152344 0 2.242188.507813 3 1.375l2.78125 3.15625c-3.0625.253906-7.09375.46875-12.375.46875s-9.3125-.214844-12.375-.46875l2.78125-3.15625c.761719-.867187 1.847656-1.375 3-1.375z" fill="url(#myGradient)"/></svg>